<svg width="39" height="39" viewBox="0 0 39 39" fill="none" xmlns="http://www.w3.org/2000/svg">
<path d="M0.818228 0.818228C1.07694 0.558861 1.38428 0.353081 1.72264 0.212675C2.06101 0.0722701 2.42375 0 2.79009 0C3.15642 0 3.51916 0.0722701 3.85753 0.212675C4.19589 0.353081 4.50323 0.558861 4.76194 0.818228L19.5007 15.5626L34.2395 0.818228C34.4985 0.559281 34.8059 0.353871 35.1442 0.21373C35.4825 0.0735883 35.8452 0.00145819 36.2114 0.00145819C36.5776 0.00145819 36.9402 0.0735883 37.2785 0.21373C37.6169 0.353871 37.9243 0.559281 38.1832 0.818228C38.4422 1.07718 38.6476 1.38459 38.7877 1.72292C38.9279 2.06125 39 2.42388 39 2.79009C39 3.15629 38.9279 3.51892 38.7877 3.85725C38.6476 4.19558 38.4422 4.50299 38.1832 4.76194L23.4389 19.5007L38.1832 34.2395C38.4422 34.4985 38.6476 34.8059 38.7877 35.1442C38.9279 35.4825 39 35.8452 39 36.2114C39 36.5776 38.9279 36.9402 38.7877 37.2785C38.6476 37.6169 38.4422 37.9243 38.1832 38.1832C37.9243 38.4422 37.6169 38.6476 37.2785 38.7877C36.9402 38.9279 36.5776 39 36.2114 39C35.8452 39 35.4825 38.9279 35.1442 38.7877C34.8059 38.6476 34.4985 38.4422 34.2395 38.1832L19.5007 23.4389L4.76194 38.1832C4.50299 38.4422 4.19558 38.6476 3.85725 38.7877C3.51892 38.9279 3.15629 39 2.79009 39C2.42388 39 2.06125 38.9279 1.72292 38.7877C1.38459 38.6476 1.07718 38.4422 0.818228 38.1832C0.559281 37.9243 0.353871 37.6169 0.21373 37.2785C0.0735883 36.9402 0.00145819 36.5776 0.00145819 36.2114C0.00145819 35.8452 0.0735883 35.4825 0.21373 35.1442C0.353871 34.8059 0.559281 34.4985 0.818228 34.2395L15.5626 19.5007L0.818228 4.76194C0.558861 4.50323 0.353081 4.19589 0.212675 3.85753C0.0722701 3.51916 0 3.15642 0 2.79009C0 2.42375 0.0722701 2.06101 0.212675 1.72264C0.353081 1.38428 0.558861 1.07694 0.818228 0.818228Z" fill="black"/>
</svg>
