<svg width="19" height="19" viewBox="0 0 19 19" fill="none" xmlns="http://www.w3.org/2000/svg">
<path d="M9.43286 0.395808C9.55817 0.395649 9.68228 0.420213 9.79808 0.468093C9.91387 0.515973 10.0191 0.586228 10.1077 0.674834C10.1963 0.76344 10.2666 0.868655 10.3144 0.984454C10.3623 1.10025 10.3869 1.22436 10.3867 1.34967L10.3854 8.48072L17.5164 8.47937C17.6417 8.47937 17.7657 8.50404 17.8815 8.55198C17.9972 8.59991 18.1023 8.67018 18.1909 8.75875C18.2795 8.84732 18.3497 8.95248 18.3977 9.0682C18.4456 9.18393 18.4703 9.30797 18.4703 9.43323C18.4703 9.55849 18.4456 9.68253 18.3977 9.79826C18.3497 9.91398 18.2795 10.0191 18.1909 10.1077C18.1023 10.1963 17.9972 10.2665 17.8815 10.3145C17.7657 10.3624 17.6417 10.3871 17.5164 10.3871L10.3854 10.3857L10.3867 17.5168C10.3867 17.6421 10.362 17.7661 10.3141 17.8818C10.2662 17.9975 10.1959 18.1027 10.1073 18.1913C10.0188 18.2798 9.91362 18.3501 9.79789 18.398C9.68216 18.446 9.55812 18.4707 9.43286 18.4707C9.3076 18.4707 9.18356 18.446 9.06783 18.398C8.95211 18.3501 8.84695 18.2798 8.75838 18.1913C8.66981 18.1027 8.59954 17.9975 8.55161 17.8818C8.50367 17.7661 8.479 17.6421 8.479 17.5168L8.48035 10.3857L1.3493 10.3871C1.22404 10.3871 1.1 10.3624 0.984272 10.3145C0.868545 10.2665 0.763392 10.1963 0.674818 10.1077C0.586244 10.0191 0.515982 9.91398 0.468046 9.79826C0.42011 9.68253 0.395438 9.55849 0.395439 9.43323C0.395438 9.30797 0.420111 9.18393 0.468046 9.0682C0.515982 8.95248 0.586243 8.84732 0.674817 8.75875C0.763392 8.67018 0.868545 8.59991 0.984272 8.55198C1.1 8.50404 1.22404 8.47937 1.3493 8.47937L8.48035 8.48072L8.479 1.34967C8.47884 1.22436 8.50341 1.10025 8.55129 0.984454C8.59917 0.868655 8.66942 0.76344 8.75803 0.674834C8.84663 0.586228 8.95185 0.515973 9.06765 0.468093C9.18345 0.420213 9.30755 0.395649 9.43286 0.395808Z" fill="black"/>
</svg>
